<?xml version="1.0" standalone="no"?><!DOCTYPE svg PUBLIC "-//W3C//DTD SVG 1.1//EN" "http://www.w3.org/Graphics/SVG/1.1/DTD/svg11.dtd"><svg t="1770894621146" class="icon" viewBox="0 0 1027 1024" version="1.1" xmlns="http://www.w3.org/2000/svg" p-id="16449" xmlns:xlink="http://www.w3.org/1999/xlink" width="200.5859375" height="200"><path d="M186.456801 783.567068a703.587236 703.587236 0 0 1-114.863383-21.442422l-3.440014-0.867525 0.867525-3.440015a707.917843 707.917843 0 0 1 42.017318-105.862179l1.704963-3.440014 2.989704 1.704963a752.773423 752.773423 0 0 0 79.307876 38.158084l2.571486 0.867525-0.418218 2.571486a747.747793 747.747793 0 0 0-7.297243 87.85576v3.858232z m83.134014-519.056041v-0.867526c-22.277854 0.418217-44.588804 1.704963-66.449443 4.275447 2.571486 22.728165 6.847935 45.007021 11.572689 66.86766a364.71373 364.71373 0 0 1 54.875751-70.304666zM190.314029 809.73625v-2.989704l-2.989703-0.418217a708.616878 708.616878 0 0 1-98.146718-16.298447l-8.582986-2.154271 4.725757 7.71546a517.452373 517.452373 0 0 0 107.147922 117.434869l6.847935 5.561189-1.285743-8.582986a817.286229 817.286229 0 0 1-7.715461-100.30099z m159.002879-782.277313a505.226782 505.226782 0 0 0-112.291897 54.871739 682.045525 682.045525 0 0 1 77.572825 18.420624A763.258948 763.258948 0 0 1 349.316908 27.454925zM515.198812 0.032093a522.880174 522.880174 0 0 0-58.283671 3.440015 717.728403 717.728403 0 0 1 77.571822 62.139897l20.574896 18.870936-20.158685 19.28815a612.650507 612.650507 0 0 0-47.996725 51.43674l-0.867525 0.867525s-2.989703 3.440014-7.715461 9.001204a347.381273 347.381273 0 0 1 36.873343-2.154272c192.468301 0 348.89869 156.013175 348.898691 348.898691 0.002006 192.470307-156.011169 348.905711-348.896685 348.905711a345.988218 345.988218 0 0 1-182.181354-51.436739 691.700632 691.700632 0 0 1-78.858568 4.275446c-12.436203 0-24.432125-0.418217-36.873343-0.867526 0.867525 39.863047 4.725757 80.594622 11.155475 123.447372a510.606443 510.606443 0 0 0 286.75779 87.85576c282.899558 0 511.789888-229.309551 511.789889-511.789888C1026.989703 229.309551 798.096365 0 515.198812 0z m-67.703093 120.874883a1243.853021 1243.853021 0 0 1 31.280061-35.137289 638.503769 638.503769 0 0 0-75.868864-55.712186 656.197277 656.197277 0 0 0-42.434533 85.288286c23.146382 8.582986 45.424236 18.420625 67.735186 29.157882 9.869732-13.27665 17.134882-20.992111 19.28815-23.568611zM99.850679 413.22395l2.154271 2.989703 2.989703-2.154271a700.626617 700.626617 0 0 1 74.164904-47.16029l2.571486-0.867525-0.867525-2.989704a669.592272 669.592272 0 0 1-17.585193-89.143509l-0.418218-3.440014-3.440014 0.867526a711.927516 711.927516 0 0 0-111.455462 29.994317l-3.440014 1.285743 1.285743 3.440014a738.249141 738.249141 0 0 0 54.008225 107.147922z m-5.979407 49.314561l-2.989704 2.154271a698.977817 698.977817 0 0 0-77.572824 73.714593l-2.571486 2.571486 2.571486 2.154272a686.926735 686.926735 0 0 0 85.288285 63.427646l2.989703 2.154271 1.704964-2.989703a717.889873 717.889873 0 0 1 45.007021-70.304666l1.704964-2.154272-1.704964-2.154271a709.848463 709.848463 0 0 1-52.722482-65.999132z m201.019193 322.768622l9.001204-0.418217-6.847935-5.561189a332.152941 332.152941 0 0 1-70.304666-78.440351v-0.867525l-5.56119-2.571486-0.867525 4.725757a685.731255 685.731255 0 0 0-6.013506 79.723085v3.440014h3.440014c11.990907 0.867525 24.432125 0.867525 36.423032 0.867525 13.27665 0.418217 27.003611 0 40.731575-0.867525z m-17.134882-565.38491a736.765823 736.765823 0 0 1 20.574897-74.578107 770.305462 770.305462 0 0 0-98.146718-20.574896 648.327367 648.327367 0 0 0-1.285743 99.882772c26.136086-2.989703 52.722482-4.275446 78.858567-4.725758z m49.282468-1.704964a357.486691 357.486691 0 0 1 71.595424-35.136286c-18.002407-8.133678-36.004815-15.84613-54.875751-22.728165-6.429718 18.870936-11.990907 38.577304-16.716664 57.868463z m-237.892537 415.767354l-2.571486-1.704963a739.525858 739.525858 0 0 1-75.869867-54.877756l-6.847935-5.56119 1.285743 9.001204a515.517741 515.517741 0 0 0 40.281264 142.314296l3.440014 8.133678 2.989704-8.133678a676.293781 676.293781 0 0 1 36.004815-85.287283z m65.577906-485.654805c-30.443625 30.443625-57.448239 64.295172-79.307875 101.586732a752.314086 752.314086 0 0 1 80.14431-18.870936 762.384402 762.384402 0 0 1-0.867525-82.715796z m15.430922 359.21773l0.418217-9.001203a346.200837 346.200837 0 0 1 15.846131-91.299786l2.571486-8.582986-7.715461 4.275446a652.811421 652.811421 0 0 0-58.733983 38.159086l-2.989703 2.154272 2.154271 2.989703c13.27665 18.870936 27.421829 37.291561 42.434533 54.875751z m3.440014 52.272172l-1.285743-8.582987-5.143975 7.715461a733.58055 733.58055 0 0 0-39.444829 62.141903l-1.704963 2.989704 2.989703 1.704963c21.442422 11.990907 44.138493 23.146382 66.867661 33.016114l8.133678 3.440015-3.857229-8.133678a344.612212 344.612212 0 0 1-26.586396-94.28949zM73.714593 437.658081l2.571486-2.154272-1.704963-2.571486a804.673511 804.673511 0 0 1-43.303061-80.14431l-3.857229-7.715461-2.575498 8.583989A509.13516 509.13516 0 0 0 0.418217 497.260592L0 506.261795l6.429718-6.429717c20.992111-22.277854 43.721278-43.721278 67.284875-62.141904z" fill="#42B029" p-id="16450"></path></svg>