<?xml version="1.0" standalone="no"?><!DOCTYPE svg PUBLIC "-//W3C//DTD SVG 1.1//EN" "http://www.w3.org/Graphics/SVG/1.1/DTD/svg11.dtd"><svg t="1770895512843" class="icon" viewBox="0 0 1024 1024" version="1.1" xmlns="http://www.w3.org/2000/svg" p-id="28951" xmlns:xlink="http://www.w3.org/1999/xlink" width="200" height="200"><path d="M309.056 230.432c-115.584-1.28-174.528 116.224-138.56 207.36 19.328 101.344 0.64 155.072-68.064 156.64-33.6-3.648-58.688 10.304-84.064 35.68-31.552 31.232-30.56 150.304 67.584 162.688 74.688 9.344 126.72-72.096 97.056-139.2-75.008-164.384 299.328-168.192 236.864-12.96-0.16 0.16-0.32 0.32-0.512 0.64-42.496 67.84 10.848 154.464 93.28 150.976 82.56 3.328 135.36-83.456 93.184-151.008a2.112 2.112 0 0 0-0.448-0.64c-62.464-155.2 311.84-151.392 236.864 13.024a103.488 103.488 0 0 0-9.056 52.32c7.776 84.672 108.96 117.504 166.4 55.808 28.224-23.488 36.576-104 0-140a93.376 93.376 0 0 0-76.704-27.328c-68.64-1.6-88.736-55.296-69.376-156.608 36.16-91.2-23.584-208.512-138.56-207.36-122.72 1.088-124.288 129.984-202.304 129.984-76.256 0-81.664-128.896-203.584-130.016z m203.136 161.888h0.96a99.52 99.52 0 0 1 99.52 99.552c0 39.68-30.4 99.552-99.52 99.552h-0.96c-68.8 0-99.616-59.424-99.616-99.52a99.68 99.68 0 0 1 99.616-99.584z" p-id="28952"></path></svg>