<?xml version="1.0" standalone="no"?><!DOCTYPE svg PUBLIC "-//W3C//DTD SVG 1.1//EN" "http://www.w3.org/Graphics/SVG/1.1/DTD/svg11.dtd"><svg t="1770525956392" class="icon" viewBox="0 0 1024 1024" version="1.1" xmlns="http://www.w3.org/2000/svg" p-id="7336" xmlns:xlink="http://www.w3.org/1999/xlink" width="32" height="32"><path d="M314.112 257.248c-141.536 85.44-236.32 235.904-242.912 408.928l-0.032 0.928c0.16 197.056 159.936 356.768 357.024 356.768 197.184 0 357.024-159.84 357.024-357.024 0-151.36-94.208-280.736-227.168-332.672l-2.432-0.832a324.096 324.096 0 0 0-123.456-24l-3.456 0.032h0.16a530.56 530.56 0 0 0-178.24 204.672l-1.376 3.104a234.496 234.496 0 1 1 179.68 385.152h-0.832 0.032-0.416a233.984 233.984 0 0 1-178.176-82.016l-0.256-0.32a280.32 280.32 0 0 1-71.968-188.064c0-17.408 1.568-34.464 4.608-51.008l-0.256 1.728C227.456 308.704 555.584 150.976 798.528 89.696c-125.536 60.832-231.648 122.944-332.48 192.192l8.576-5.568c293.664 113.376 340.864-133.792 478.176-244.384C816.192-21.568 314.816-41.28 314.08 257.312z" fill="#47A141" p-id="7337"></path></svg>