<?xml version="1.0" standalone="no"?><!DOCTYPE svg PUBLIC "-//W3C//DTD SVG 1.1//EN" "http://www.w3.org/Graphics/SVG/1.1/DTD/svg11.dtd"><svg t="1770882519942" class="icon" viewBox="0 0 1204 1024" version="1.1" xmlns="http://www.w3.org/2000/svg" p-id="7780" xmlns:xlink="http://www.w3.org/1999/xlink" width="235.15625" height="200"><path d="M333.522824 792.094118H291.538824v54.994823h41.984c10.059294 0 17.588706-2.409412 22.768941-7.348706 5.12-4.818824 7.710118-11.565176 7.710117-20.058353s-2.590118-15.299765-7.710117-20.178823c-5.180235-4.818824-12.769882-7.228235-22.768941-7.228235m177.814588 38.550588c1.807059-3.192471 2.831059-7.228235 2.831059-12.288 0-8.131765-2.710588-14.456471-8.252236-19.275294-5.541647-4.577882-12.890353-6.927059-21.985882-6.927059H439.115294v51.32047h44.092235c13.613176 0 23.009882-4.216471 28.129883-12.649411M602.352941 0L0 1024h1204.705882L602.352941 0M366.592 849.498353c-7.830588 7.348706-18.672941 11.083294-32.105412 11.083294H291.538824v45.477647H277.082353v-127.698823h57.404235c13.492706 0 24.214588 3.794824 32.165647 11.264 7.830588 7.408941 11.806118 17.347765 11.806118 29.81647 0 12.649412-3.975529 22.588235-11.866353 29.997177m147.576471 56.621176l-30.72-49.031529h-44.393412v48.911059h-14.456471v-127.698824h61.078588c12.950588 0 23.371294 3.614118 31.201883 10.842353 7.830588 7.107765 11.745882 16.865882 11.745882 29.153882 0 15.902118-6.625882 26.744471-19.877647 32.527059-3.614118 1.686588-7.348706 3.011765-10.962823 3.614118l33.551058 51.561412h-17.167058m80.896 0h-14.456471v-127.698824h14.456471v127.698824m141.914353-7.951059c-8.914824 6.324706-21.263059 9.456941-37.104942 9.456941-17.829647 0-31.503059-3.614118-40.839529-11.14353-8.432941-6.625882-13.131294-16.263529-14.275765-28.551529h15.058824c0.481882 8.734118 4.698353 15.420235 12.649412 20.058353 6.987294 4.035765 16.143059 6.023529 27.587764 6.023529 23.913412 0 35.84-7.529412 35.84-22.528 0-5.180235-2.108235-9.216-6.445176-12.167529-4.216471-3.011765-9.637647-5.421176-16.143059-7.228235-6.445176-1.987765-13.492706-3.794824-20.961882-5.421177s-14.456471-3.915294-21.082353-6.505412-11.866353-6.144-16.143059-10.420705c-4.216471-4.336941-6.445176-10.119529-6.445177-17.468236 0-10.420706 3.915294-18.853647 11.866353-25.419294 7.951059-6.505412 19.998118-9.758118 36.141177-9.758117 16.082824 0 28.611765 3.614118 37.526588 11.143529 8.071529 6.625882 12.348235 15.058824 12.890353 25.298823h-14.817882c-1.325176-10.601412-8.131765-17.588706-20.48-21.082352-4.336941-1.204706-9.758118-1.807059-16.26353-1.807059s-11.926588 0.602353-16.384 2.108235c-4.457412 1.505882-7.830588 3.312941-10.24 5.421176-2.529882 2.108235-4.216471 4.457412-4.999529 7.04753s-1.204706 5.300706-1.204706 8.192c0 3.011765 1.204706 5.601882 3.734588 8.011294s5.782588 4.517647 9.938824 6.204235c4.096 1.686588 8.794353 3.132235 14.034823 4.397177 5.300706 1.204706 10.661647 2.590118 16.082824 3.915294 5.421176 1.325176 10.842353 2.891294 16.143059 4.638118 5.240471 1.807059 9.938824 3.915294 14.034823 6.625882 9.216 5.782588 13.733647 13.673412 13.733647 23.732706 0 12.047059-4.457412 21.082353-13.372235 27.407059m173.718588 7.951058v-105.652705l-47.224471 60.717176-48.007529-60.717176v105.652705H801.129412v-127.698823h16.745412l45.658352 60.596706 44.875295-60.536471h16.865882v127.698824h-14.456471" fill="#666666" p-id="7781"></path></svg>