<?xml version="1.0" standalone="no"?><!DOCTYPE svg PUBLIC "-//W3C//DTD SVG 1.1//EN" "http://www.w3.org/Graphics/SVG/1.1/DTD/svg11.dtd"><svg t="1770894782870" class="icon" viewBox="0 0 1024 1024" version="1.1" xmlns="http://www.w3.org/2000/svg" p-id="23515" xmlns:xlink="http://www.w3.org/1999/xlink" width="200" height="200"><path d="M987.68 110.336L777.024 8.992a63.68 63.68 0 0 0-72.832 12.32L300.704 389.472 124.864 256.128a42.56 42.56 0 0 0-54.496 2.336L14.048 309.792a42.56 42.56 0 0 0-0.16 63.008L166.4 511.968 13.888 651.136a42.56 42.56 0 0 0 0.16 63.008l56.32 51.328a42.56 42.56 0 0 0 54.496 2.336l175.84-133.504 403.68 368.32a63.424 63.424 0 0 0 72.672 12.32l210.848-101.504a63.776 63.776 0 0 0 36.16-57.664V167.936c0-24.512-14.176-47.008-36.32-57.664z m-219.52 634.176L461.824 512l306.336-232.512z" p-id="23516"></path></svg>