<?xml version="1.0" standalone="no"?><!DOCTYPE svg PUBLIC "-//W3C//DTD SVG 1.1//EN" "http://www.w3.org/Graphics/SVG/1.1/DTD/svg11.dtd"><svg t="1770882660451" class="icon" viewBox="0 0 1024 1024" version="1.1" xmlns="http://www.w3.org/2000/svg" p-id="8948" xmlns:xlink="http://www.w3.org/1999/xlink" width="200" height="200"><path d="M0 330.752c0 58.44992 47.38048 105.84064 105.84064 105.84064 58.44992 0 105.84064-47.39072 105.84064-105.84064s-47.39072-105.84064-105.84064-105.84064C47.38048 224.91136 0 272.30208 0 330.752zM0 859.9552c0 58.43968 47.38048 105.8304 105.84064 105.8304 58.44992 0 105.84064-47.38048 105.84064-105.84064 0-58.44992-47.39072-105.84064-105.84064-105.84064C47.38048 754.10432 0 801.49504 0 859.9552zM39.69024 595.3536a66.1504 66.1504 0 1 0 132.3008 0 66.1504 66.1504 0 0 0-132.3008 0zM39.69024 66.1504a66.1504 66.1504 0 1 0 132.3008 0 66.1504 66.1504 0 0 0-132.3008 0zM406.15936 693.248c0 58.44992 47.38048 105.84064 105.84064 105.84064 58.44992 0 105.84064-47.39072 105.84064-105.84064S570.44992 587.40736 512 587.40736c-58.46016 0-105.84064 47.39072-105.84064 105.84064zM445.8496 957.8496a66.1504 66.1504 0 1 0 132.3008 0 66.1504 66.1504 0 0 0-132.3008 0zM445.8496 428.6464a66.1504 66.1504 0 1 0 132.3008 0 66.1504 66.1504 0 0 0-132.3008 0zM445.8496 164.0448a66.1504 66.1504 0 1 0 132.3008 0 66.1504 66.1504 0 0 0-132.3008 0zM812.31872 330.752c0 58.44992 47.39072 105.84064 105.84064 105.84064C976.61952 436.59264 1024 389.20192 1024 330.752s-47.38048-105.84064-105.84064-105.84064c-58.44992 0-105.84064 47.39072-105.84064 105.84064zM852.00896 66.1504a66.1504 66.1504 0 1 0 132.3008 0 66.1504 66.1504 0 0 0-132.3008 0zM852.00896 595.3536a66.1504 66.1504 0 1 0 132.3008 0 66.1504 66.1504 0 0 0-132.3008 0zM852.00896 859.9552a66.1504 66.1504 0 1 0 132.3008 0 66.1504 66.1504 0 0 0-132.3008 0z" p-id="8949" fill="#2c2c2c"></path></svg>